<svg width="211" height="196" viewBox="0 0 211 196" fill="none" xmlns="http://www.w3.org/2000/svg">
<path d="M208.568 167.785C223.429 172.328 232.71 178.215 237.718 184.75C242.706 191.259 243.495 198.465 241.257 205.784C239.013 213.127 233.717 220.588 226.529 227.517C219.345 234.442 210.298 240.808 200.6 245.965C190.901 251.122 180.566 255.063 170.808 257.147C161.043 259.232 151.896 259.45 144.554 257.206C137.234 254.968 131.702 250.285 129.094 242.51C126.476 234.704 126.785 223.718 131.328 208.857L130.85 208.711L130.371 208.565C125.829 223.425 119.943 232.707 113.408 237.716C106.9 242.705 99.6956 243.494 92.377 241.258C85.035 239.014 77.5744 233.72 70.6454 226.532C63.7213 219.349 57.3557 210.304 52.1987 200.606C47.0417 190.909 43.1009 180.573 41.0164 170.816C38.9305 161.052 38.7116 151.906 40.9552 144.564C43.1917 137.245 47.873 131.712 55.6461 129.104C63.4504 126.486 74.4345 126.794 89.2924 131.336L89.4386 130.858L89.5847 130.379C74.7243 125.836 65.4428 119.949 60.4349 113.414C55.4469 106.905 54.658 99.6996 56.8955 92.3803C59.1402 85.0376 64.4354 77.5763 71.6242 70.6468C78.8081 63.7222 87.8545 57.3564 97.5529 52.1993C107.251 47.0422 117.587 43.1015 127.345 41.0175C137.11 38.932 146.256 38.7139 153.599 40.9585C160.918 43.196 166.451 47.8788 169.059 55.6538C171.676 63.4574 171.368 74.4392 166.83 89.2923C166.828 89.2973 166.827 89.3023 166.825 89.3072L167.303 89.4534L167.781 89.5996C172.326 74.7408 178.215 65.4605 184.751 60.4532C191.262 55.4659 198.468 54.6774 205.788 56.9149C213.131 59.1595 220.592 64.4544 227.522 71.6428C234.447 78.8261 240.813 87.8717 245.97 97.5692C251.127 107.267 255.067 117.602 257.151 127.358C259.236 137.122 259.454 146.267 257.209 153.609C254.972 160.927 250.289 166.458 242.514 169.065C234.707 171.682 223.721 171.372 208.86 166.828L208.714 167.307L208.568 167.785Z" fill="#0D1140" stroke="#FF0A47"/>
<path d="M228.568 167.785C243.429 172.328 252.71 178.215 257.718 184.75C262.706 191.259 263.495 198.465 261.257 205.784C259.013 213.127 253.717 220.588 246.529 227.517C239.345 234.442 230.298 240.808 220.6 245.965C210.901 251.122 200.566 255.063 190.808 257.147C181.043 259.232 171.896 259.45 164.554 257.206C157.234 254.968 151.702 250.285 149.094 242.51C146.476 234.704 146.785 223.718 151.328 208.857L150.85 208.711L150.371 208.565C145.829 223.425 139.943 232.707 133.408 237.716C126.9 242.705 119.696 243.494 112.377 241.258C105.035 239.014 97.5744 233.72 90.6454 226.532C83.7213 219.349 77.3557 210.304 72.1987 200.606C67.0417 190.909 63.1009 180.573 61.0164 170.816C58.9305 161.052 58.7116 151.906 60.9552 144.564C63.1917 137.245 67.873 131.712 75.6461 129.104C83.4504 126.486 94.4345 126.794 109.292 131.336L109.439 130.858L109.585 130.379C94.7243 125.836 85.4428 119.949 80.4349 113.414C75.4469 106.905 74.658 99.6996 76.8955 92.3803C79.1402 85.0376 84.4354 77.5763 91.6242 70.6468C98.8081 63.7222 107.854 57.3564 117.553 52.1993C127.251 47.0422 137.587 43.1015 147.345 41.0175C157.11 38.932 166.256 38.7139 173.599 40.9585C180.918 43.196 186.451 47.8788 189.059 55.6538C191.676 63.4574 191.368 74.4392 186.83 89.2923C186.828 89.2973 186.827 89.3023 186.825 89.3072L187.303 89.4534L187.781 89.5996C192.326 74.7408 198.215 65.4605 204.751 60.4532C211.262 55.4659 218.468 54.6774 225.788 56.9149C233.131 59.1595 240.592 64.4544 247.522 71.6428C254.447 78.8261 260.813 87.8717 265.97 97.5692C271.127 107.267 275.067 117.602 277.151 127.358C279.236 137.122 279.454 146.267 277.209 153.609C274.972 160.927 270.289 166.458 262.514 169.065C254.707 171.682 243.721 171.372 228.86 166.828L228.714 167.307L228.568 167.785Z" fill="#0D1140" stroke="#FF0A47"/>
<path d="M248.568 167.785C263.429 172.328 272.71 178.215 277.718 184.75C282.706 191.259 283.495 198.465 281.257 205.784C279.013 213.127 273.717 220.588 266.529 227.517C259.345 234.442 250.298 240.808 240.6 245.965C230.901 251.122 220.566 255.063 210.808 257.147C201.043 259.232 191.896 259.45 184.554 257.206C177.234 254.968 171.702 250.285 169.094 242.51C166.476 234.704 166.785 223.718 171.328 208.857L170.85 208.711L170.371 208.565C165.829 223.425 159.943 232.707 153.408 237.716C146.9 242.705 139.696 243.494 132.377 241.258C125.035 239.014 117.574 233.72 110.645 226.532C103.721 219.349 97.3557 210.304 92.1987 200.606C87.0417 190.909 83.1009 180.573 81.0164 170.816C78.9305 161.052 78.7116 151.906 80.9552 144.564C83.1917 137.245 87.873 131.712 95.6461 129.104C103.45 126.486 114.435 126.794 129.292 131.336L129.439 130.858L129.585 130.379C114.724 125.836 105.443 119.949 100.435 113.414C95.4469 106.905 94.658 99.6996 96.8955 92.3803C99.1402 85.0376 104.435 77.5763 111.624 70.6468C118.808 63.7222 127.854 57.3564 137.553 52.1993C147.251 47.0422 157.587 43.1015 167.345 41.0175C177.11 38.932 186.256 38.7139 193.599 40.9585C200.918 43.196 206.451 47.8788 209.059 55.6538C211.676 63.4574 211.368 74.4392 206.83 89.2923C206.828 89.2973 206.827 89.3023 206.825 89.3072L207.303 89.4534L207.781 89.5996C212.326 74.7408 218.215 65.4605 224.751 60.4532C231.262 55.4659 238.468 54.6774 245.788 56.9149C253.131 59.1595 260.592 64.4544 267.522 71.6428C274.447 78.8261 280.813 87.8717 285.97 97.5692C291.127 107.267 295.067 117.602 297.151 127.358C299.236 137.122 299.454 146.267 297.209 153.609C294.972 160.927 290.289 166.458 282.514 169.065C274.707 171.682 263.721 171.372 248.86 166.828L248.714 167.307L248.568 167.785Z" fill="#0D1140" stroke="#FF0A47"/>
</svg>
