<svg width="171" height="186" viewBox="0 0 171 186" fill="none" xmlns="http://www.w3.org/2000/svg">
<path d="M182.777 115.773L182.73 116.271L183.228 116.318C231.081 120.853 252.446 146.984 250.211 170.578C247.976 194.172 222.084 215.826 174.227 211.294L173.729 211.247L173.682 211.744C169.148 259.597 143.017 280.964 119.424 278.729C95.8313 276.495 74.1781 250.603 78.7107 202.745L78.7578 202.247L78.2601 202.2C30.4092 197.665 9.044 171.534 11.2786 147.94C13.5132 124.346 39.4041 102.692 87.2604 107.224L87.7582 107.271L87.8053 106.773C92.3344 58.9254 118.464 37.5617 142.059 39.7963C165.653 42.0309 187.309 67.9205 182.777 115.773Z" fill="#0D1140" stroke="#FF0A47"/>
<path d="M200.779 102.51L200.732 103.008L201.229 103.055C249.083 107.589 270.448 133.721 268.213 157.315C265.978 180.908 240.085 202.563 192.229 198.03L191.731 197.983L191.684 198.481C187.15 246.334 161.019 267.7 137.426 265.465C113.833 263.231 92.1801 237.339 96.7126 189.481L96.7598 188.983L96.2621 188.936C48.4112 184.401 27.046 158.27 29.2805 134.676C31.5151 111.082 57.406 89.428 105.262 93.9604L105.76 94.0076L105.807 93.5098C110.336 45.6617 136.466 24.298 160.061 26.5326C183.655 28.7673 205.311 54.6568 200.779 102.51Z" fill="#0D1140" stroke="#FF0A47"/>
<path d="M218.345 87.9001L218.298 88.3979L218.796 88.4451C266.649 92.9798 288.015 119.111 285.779 142.705C283.544 166.299 257.652 187.953 209.796 183.421L209.298 183.373L209.251 183.871C204.716 231.724 178.586 253.09 154.993 250.856C131.4 248.621 109.746 222.729 114.279 174.871L114.326 174.373L113.828 174.326C65.9776 169.792 44.6124 143.661 46.8469 120.067C49.0815 96.4726 74.9724 74.8184 122.829 79.3508L123.327 79.398L123.374 78.9002C127.903 31.0521 154.033 9.6884 177.627 11.923C201.221 14.1576 222.877 40.0472 218.345 87.9001Z" fill="#0D1140" stroke="#FF0A47"/>
</svg>
