<svg width="192" height="196" viewBox="0 0 192 196" fill="none" xmlns="http://www.w3.org/2000/svg">
<path d="M115.554 63.4647C134.305 49.8413 159.695 49.8413 178.447 63.4648L254.771 118.918C273.522 132.541 281.368 156.689 274.206 178.733L245.053 268.457C237.89 290.501 217.349 305.425 194.171 305.425H99.8288C76.6512 305.425 56.1096 290.501 48.9473 268.457L19.794 178.733C12.6317 156.689 20.4779 132.541 39.229 118.918L115.554 63.4647Z" fill="#0D1140" stroke="#FF0A47"/>
<path d="M135.554 43.4647C154.305 29.8413 179.695 29.8413 198.447 43.4648L274.771 98.9178C293.522 112.541 301.368 136.689 294.206 158.733L265.053 248.457C257.89 270.501 237.349 285.425 214.171 285.425H119.829C96.6512 285.425 76.1096 270.501 68.9473 248.457L39.794 158.733C32.6317 136.689 40.4779 112.541 59.229 98.9178L135.554 43.4647Z" fill="#0D1140" stroke="#FF0A47"/>
<path d="M155.554 23.4647C174.305 9.84129 199.695 9.84132 218.447 23.4648L294.771 78.9178C313.522 92.5412 321.368 116.689 314.206 138.733L285.053 228.457C277.89 250.501 257.349 265.425 234.171 265.425H139.829C116.651 265.425 96.1096 250.501 88.9473 228.457L59.794 138.733C52.6317 116.689 60.4779 92.5412 79.229 78.9178L155.554 23.4647Z" fill="#0D1140" stroke="#FF0A47"/>
</svg>
