<svg xmlns="http://www.w3.org/2000/svg" width="32" height="32" fill="none"><rect width="32" height="32" fill="#A8B2C7" rx="16"/><path fill="#F7F9FD" fill-rule="evenodd" d="M8.077 14.957c4.859-2.116 8.099-3.512 9.72-4.186 4.628-1.925 5.59-2.26 6.217-2.27.138-.003.446.03.646.193a.702.702 0 0 1 .237.451c.022.13.05.425.028.656-.25 2.636-1.336 9.031-1.888 11.983-.234 1.249-.694 1.668-1.14 1.709-.967.089-1.702-.64-2.64-1.255-1.466-.961-2.295-1.56-3.719-2.498-1.646-1.084-.579-1.68.359-2.654.245-.255 4.51-4.134 4.592-4.486.01-.044.02-.208-.077-.295-.098-.086-.241-.057-.345-.033-.147.033-2.49 1.582-7.03 4.647-.666.456-1.268.679-1.808.667-.595-.013-1.74-.336-2.59-.613-1.044-.34-1.874-.519-1.802-1.095.038-.3.451-.607 1.24-.92Z" clip-rule="evenodd"/></svg>