<svg xmlns="http://www.w3.org/2000/svg" width="32" height="32" fill="none"><rect width="32" height="32" fill="#A8B2C7" rx="16"/><path fill="#F7F9FD" d="M23.99 11.992a2.088 2.088 0 0 0-1.469-1.469c-1.304-.357-6.52-.357-6.52-.357s-5.218 0-6.522.344a2.13 2.13 0 0 0-1.469 1.482c-.343 1.305-.343 4.01-.343 4.01s0 2.717.343 4.008a2.088 2.088 0 0 0 1.47 1.469c1.317.357 6.52.357 6.52.357s5.217 0 6.521-.343a2.088 2.088 0 0 0 1.47-1.47c.343-1.304.343-4.008.343-4.008s.013-2.718-.344-4.023ZM14.34 18.5v-4.997L18.676 16 14.34 18.5Z"/></svg>