<svg width="157" height="140" viewBox="0 0 157 140" fill="none" xmlns="http://www.w3.org/2000/svg">
<path d="M75.4696 -50.9675L81.845 11.5132C83.2302 25.0893 75.7161 38.0135 63.2325 43.5262L5.77997 68.8971C-6.70363 74.4099 -21.3172 71.2573 -30.4178 61.0882L-72.3008 14.2876C-81.4014 4.11852 -82.9189 -10.754 -76.0598 -22.5516L-44.4923 -76.8468C-37.6332 -88.6444 -23.9575 -94.6836 -10.6178 -91.8058L50.775 -78.5615C64.1147 -75.6837 74.0843 -64.5436 75.4696 -50.9675Z" fill="#FF0A47" stroke="white"/>
<path d="M71.2509 -54.318L77.6262 8.16262C79.0115 21.7388 71.4974 34.6629 59.0138 40.1756L1.56122 65.5466C-10.9224 71.0593 -25.536 67.9067 -34.6365 57.7376L-76.5196 10.937C-85.6201 0.76793 -87.1377 -14.1046 -80.2785 -25.9022L-48.7111 -80.1974C-41.8519 -91.995 -28.1763 -98.0342 -14.8365 -95.1564L46.5562 -81.9121C59.896 -79.0343 69.8656 -67.8942 71.2509 -54.318Z" fill="#FF0A47" stroke="white"/>
<path d="M66.1727 -57.6642L72.5481 4.81643C73.9334 18.3926 66.4192 31.3167 53.9356 36.8295L-3.5169 62.2004C-16.0005 67.7131 -30.6141 64.5605 -39.7147 54.3914L-81.5977 7.59082C-90.6983 -2.57826 -92.2158 -17.4508 -85.3567 -29.2483L-53.7892 -83.5436C-46.9301 -95.3412 -33.2544 -101.38 -19.9146 -98.5026L41.4781 -85.2583C54.8178 -82.3805 64.7875 -71.2404 66.1727 -57.6642Z" fill="#FF0A47" stroke="white"/>
</svg>
