<svg width="373" height="577" viewBox="0 0 373 577" fill="none" xmlns="http://www.w3.org/2000/svg">
<path d="M2.85489 -105.062C25.6323 -109.35 48.5808 -98.4843 59.6981 -78.147L170.99 125.445C182.108 145.782 178.865 170.965 162.959 187.823L3.72255 356.582C-12.184 373.439 -37.1364 378.137 -58.0845 368.219L-267.79 268.926C-288.738 259.007 -300.917 236.727 -297.957 213.74L-268.326 -16.3855C-265.366 -39.3734 -247.941 -57.841 -225.164 -62.1296L2.85489 -105.062Z" fill="#FF0A47" stroke="white"/>
<path d="M-11.8849 -109.183C10.8925 -113.471 33.841 -102.605 44.9583 -82.2681L156.251 121.324C167.368 141.661 164.125 166.844 148.219 183.702L-11.0172 352.46C-26.9237 369.318 -51.8762 374.016 -72.8243 364.098L-282.53 264.804C-303.478 254.886 -315.657 232.606 -312.697 209.619L-283.066 -20.5066C-280.106 -43.4945 -262.681 -61.9621 -239.903 -66.2507L-11.8849 -109.183Z" fill="#FF0A47" stroke="white"/>
<path d="M-28.8717 -112.342C-6.09429 -116.63 16.8542 -105.765 27.9715 -85.4273L139.264 118.165C150.381 138.502 147.139 163.685 131.232 180.543L-28.004 349.301C-43.9105 366.159 -68.863 370.857 -89.8111 360.938L-299.517 261.645C-320.465 251.727 -332.644 229.447 -329.684 206.459L-300.053 -23.6658C-297.093 -46.6537 -279.668 -65.1212 -256.89 -69.4098L-28.8717 -112.342Z" fill="#FF0A47" stroke="white"/>
</svg>
