<svg width="250" height="214" viewBox="0 0 250 214" fill="none" xmlns="http://www.w3.org/2000/svg">
<path d="M226.911 182.383L226.703 182.583L226.772 182.863C232.482 206.02 231.94 235.233 222.047 269.619C187.693 259.615 162.707 244.47 146.181 227.274L145.981 227.066L145.701 227.135C122.559 232.837 93.3465 232.294 58.9451 222.41C68.9491 188.056 84.0939 163.07 101.29 146.544L101.498 146.344L101.429 146.064C95.7269 122.922 96.2697 93.7096 106.154 59.3081C140.508 69.3122 165.494 84.457 182.02 101.653L182.22 101.861L182.5 101.792C205.642 96.09 234.854 96.6328 269.256 106.517C259.252 140.871 244.107 165.857 226.911 182.383Z" fill="#0D1140" stroke="#FF0A47"/>
<path d="M246.911 182.383L246.703 182.583L246.772 182.863C252.482 206.02 251.94 235.233 242.047 269.619C207.693 259.615 182.707 244.47 166.181 227.274L165.981 227.066L165.701 227.135C142.559 232.837 113.347 232.294 78.9451 222.41C88.9491 188.056 104.094 163.07 121.29 146.544L121.498 146.344L121.429 146.064C115.727 122.922 116.27 93.7096 126.154 59.3081C160.508 69.3122 185.494 84.457 202.02 101.653L202.22 101.861L202.5 101.792C225.642 96.09 254.854 96.6328 289.256 106.517C279.252 140.871 264.107 165.857 246.911 182.383Z" fill="#0D1140" stroke="#FF0A47"/>
<path d="M266.911 182.383L266.703 182.583L266.772 182.863C272.482 206.02 271.94 235.233 262.047 269.619C227.693 259.615 202.707 244.47 186.181 227.274L185.981 227.066L185.701 227.135C162.559 232.837 133.347 232.294 98.9451 222.41C108.949 188.056 124.094 163.07 141.29 146.544L141.498 146.344L141.429 146.064C135.727 122.922 136.27 93.7096 146.154 59.3081C180.508 69.3122 205.494 84.457 222.02 101.653L222.22 101.861L222.5 101.792C245.642 96.09 274.854 96.6328 309.256 106.517C299.252 140.871 284.107 165.857 266.911 182.383Z" fill="#0D1140" stroke="#FF0A47"/>
</svg>
