<svg width="176" height="176" viewBox="0 0 176 176" fill="none" xmlns="http://www.w3.org/2000/svg">
<path d="M223.916 189.646L223.915 189.648C222.362 191.78 219.53 192.768 215.837 193.078C212.159 193.386 207.763 193.011 203.237 192.552C202.667 192.494 202.095 192.435 201.523 192.376C197.568 191.967 193.579 191.555 190.009 191.556C185.94 191.557 182.292 192.091 179.823 193.882C177.388 195.638 175.778 198.906 174.538 202.738C173.468 206.046 172.647 209.865 171.83 213.665C171.696 214.286 171.563 214.906 171.429 215.523C170.468 219.94 169.458 224.211 168.011 227.597C166.559 230.994 164.717 233.377 162.167 234.199C159.71 234.985 156.884 234.118 153.746 232.207C150.622 230.304 147.309 227.441 143.922 224.436C143.576 224.128 143.228 223.819 142.881 223.51C139.844 220.809 136.765 218.069 133.769 215.937C130.441 213.569 127.125 211.88 124 211.88C120.875 211.88 117.558 213.573 114.231 215.947C111.243 218.079 108.172 220.815 105.144 223.513C104.788 223.831 104.432 224.147 104.078 224.463C100.691 227.472 97.3777 230.337 94.2539 232.237C91.1167 234.144 88.2922 235.002 85.8357 234.2L85.8339 234.199C83.2834 233.377 81.4416 230.994 79.9892 227.597C78.5418 224.211 77.5322 219.94 76.5713 215.523C76.437 214.906 76.3036 214.285 76.17 213.664C75.3532 209.865 74.532 206.046 73.4616 202.738C72.2217 198.906 70.6122 195.638 68.1767 193.882L68.1758 193.881C65.7068 192.109 62.0593 191.583 57.9902 191.586C54.44 191.588 50.4759 191.994 46.5421 192.398C45.9481 192.458 45.3548 192.519 44.7637 192.579C40.2373 193.033 35.842 193.401 32.1637 193.088C28.4708 192.773 25.6385 191.781 24.0847 189.648L24.084 189.647C22.5503 187.551 22.4895 184.598 23.3362 181.03C24.1794 177.477 25.8889 173.451 27.7168 169.318C27.9291 168.838 28.1429 168.357 28.357 167.875C29.9787 164.225 31.6184 160.535 32.7238 157.11C33.9701 153.249 34.5773 149.613 33.6284 146.693C32.7134 143.874 30.0885 141.371 26.8093 139.039C24.0297 137.063 20.7008 135.156 17.3775 133.253C16.7618 132.9 16.1463 132.547 15.5345 132.195C11.6019 129.926 7.82163 127.645 5.02442 125.205C2.21849 122.757 0.5 120.235 0.5 117.5C0.5 114.784 2.21744 112.271 5.02417 109.826C7.82164 107.389 11.6022 105.105 15.5349 102.832C16.1361 102.485 16.7408 102.137 17.3458 101.79C20.6799 99.8761 24.0212 97.958 26.8098 95.9702C30.0888 93.6328 32.7133 91.1262 33.6283 88.3074C34.5777 85.4038 33.9651 81.7807 32.7134 77.9291C31.6109 74.5369 29.9809 70.8789 28.3663 67.2556C28.1399 66.7478 27.9139 66.2406 27.6897 65.7349C25.8574 61.6024 24.1459 57.5723 23.3061 54.0107C22.463 50.4352 22.5318 47.4678 24.0836 45.3539L24.0847 45.3524C25.6383 43.2197 28.47 42.2319 32.163 41.9223C35.8414 41.614 40.2366 41.9888 44.7632 42.448C45.3327 42.5057 45.9044 42.5649 46.4767 42.624C50.432 43.033 54.4205 43.4454 57.9906 43.4444C62.06 43.4433 65.7081 42.9089 68.1773 41.118C70.6125 39.3614 72.2218 36.0941 73.4616 32.2623C74.532 28.9543 75.3532 25.135 76.17 21.3357C76.3036 20.7147 76.437 20.0942 76.5713 19.4766C77.5322 15.0597 78.5418 10.7887 79.9892 7.403C81.4415 4.00583 83.2832 1.62304 85.8335 0.80091C88.2905 0.0154861 91.1161 0.882171 94.2536 2.79311C97.3778 4.69596 100.691 7.55917 104.078 10.5644C104.424 10.8718 104.771 11.1806 105.119 11.49C108.156 14.1913 111.235 16.9305 114.231 19.0631C117.559 21.4314 120.875 23.1202 124 23.1202C127.125 23.1202 130.442 21.4265 133.769 19.0528C136.757 16.9211 139.828 14.1853 142.856 11.487C143.212 11.1696 143.568 10.8527 143.922 10.5374C147.309 7.52779 150.622 4.6626 153.746 2.76326C156.883 0.855788 159.708 -0.00169695 162.164 0.800181L162.166 0.800757C164.717 1.62275 166.558 4.00562 168.011 7.403C169.458 10.7887 170.468 15.0597 171.429 19.4766C171.563 20.0941 171.696 20.7145 171.83 21.3354C172.647 25.1348 173.468 28.9542 174.538 32.2623C175.778 36.0944 177.388 39.3619 179.823 41.1184L179.824 41.1191C182.293 42.8912 185.941 43.4166 190.01 43.4144C193.56 43.4124 197.524 43.0059 201.458 42.6025C202.052 42.5415 202.645 42.4807 203.236 42.4213C207.763 41.9667 212.158 41.5985 215.836 41.9123C219.529 42.2273 222.361 43.2193 223.915 45.3524L223.916 45.3533C225.45 47.4487 225.511 50.402 224.664 53.97C223.821 57.5232 222.111 61.5492 220.283 65.6819C220.071 66.1618 219.857 66.6431 219.643 67.1251C218.021 70.775 216.382 74.4654 215.276 77.89C214.03 81.7514 213.423 85.3871 214.372 88.3073C215.287 91.1262 217.911 93.6328 221.19 95.9702C223.979 97.958 227.32 99.8761 230.654 101.79C231.259 102.137 231.864 102.485 232.465 102.832C236.398 105.105 240.178 107.389 242.976 109.826C245.783 112.271 247.5 114.784 247.5 117.5C247.5 120.216 245.783 122.729 242.976 125.174C240.178 127.611 236.398 129.895 232.465 132.168C231.864 132.515 231.259 132.863 230.654 133.21C227.32 135.124 223.979 137.042 221.19 139.03C217.911 141.367 215.286 143.874 214.372 146.693C213.422 149.596 214.035 153.219 215.287 157.071C216.389 160.463 218.019 164.121 219.634 167.745C219.86 168.252 220.086 168.759 220.31 169.265C222.143 173.398 223.854 177.428 224.694 180.989C225.537 184.565 225.468 187.532 223.916 189.646Z" fill="#0D1140" stroke="#FF0A47"/>
<path d="M243.916 189.646L243.915 189.648C242.362 191.78 239.53 192.768 235.837 193.078C232.159 193.386 227.763 193.011 223.237 192.552C222.667 192.494 222.095 192.435 221.523 192.376C217.568 191.967 213.579 191.555 210.009 191.556C205.94 191.557 202.292 192.091 199.823 193.882C197.388 195.638 195.778 198.906 194.538 202.738C193.468 206.046 192.647 209.865 191.83 213.665C191.696 214.286 191.563 214.906 191.429 215.523C190.468 219.94 189.458 224.211 188.011 227.597C186.559 230.994 184.717 233.377 182.167 234.199C179.71 234.985 176.884 234.118 173.746 232.207C170.622 230.304 167.309 227.441 163.922 224.436C163.576 224.128 163.228 223.819 162.881 223.51C159.844 220.809 156.765 218.069 153.769 215.937C150.441 213.569 147.125 211.88 144 211.88C140.875 211.88 137.558 213.573 134.231 215.947C131.243 218.079 128.172 220.815 125.144 223.513C124.788 223.831 124.432 224.147 124.078 224.463C120.691 227.472 117.378 230.337 114.254 232.237C111.117 234.144 108.292 235.002 105.836 234.2L105.834 234.199C103.283 233.377 101.442 230.994 99.9892 227.597C98.5418 224.211 97.5322 219.94 96.5713 215.523C96.437 214.906 96.3036 214.285 96.17 213.664C95.3532 209.865 94.532 206.046 93.4616 202.738C92.2217 198.906 90.6122 195.638 88.1767 193.882L88.1758 193.881C85.7068 192.109 82.0593 191.583 77.9902 191.586C74.44 191.588 70.4759 191.994 66.5421 192.398C65.9481 192.458 65.3548 192.519 64.7637 192.579C60.2373 193.033 55.842 193.401 52.1637 193.088C48.4708 192.773 45.6385 191.781 44.0847 189.648L44.084 189.647C42.5503 187.551 42.4895 184.598 43.3362 181.03C44.1794 177.477 45.8889 173.451 47.7168 169.318C47.9291 168.838 48.1429 168.357 48.357 167.875C49.9787 164.225 51.6184 160.535 52.7238 157.11C53.9701 153.249 54.5773 149.613 53.6284 146.693C52.7134 143.874 50.0885 141.371 46.8093 139.039C44.0297 137.063 40.7008 135.156 37.3775 133.253C36.7618 132.9 36.1463 132.547 35.5345 132.195C31.6019 129.926 27.8216 127.645 25.0244 125.205C22.2185 122.757 20.5 120.235 20.5 117.5C20.5 114.784 22.2174 112.271 25.0242 109.826C27.8216 107.389 31.6022 105.105 35.5349 102.832C36.1361 102.485 36.7408 102.137 37.3458 101.79C40.6799 99.8761 44.0212 97.958 46.8098 95.9702C50.0888 93.6328 52.7133 91.1262 53.6283 88.3074C54.5777 85.4038 53.9651 81.7807 52.7134 77.9291C51.6109 74.5369 49.9809 70.8789 48.3663 67.2556C48.1399 66.7478 47.9139 66.2406 47.6897 65.7349C45.8574 61.6024 44.1459 57.5723 43.3061 54.0107C42.463 50.4352 42.5318 47.4678 44.0836 45.3539L44.0847 45.3524C45.6383 43.2197 48.47 42.2319 52.163 41.9223C55.8414 41.614 60.2366 41.9888 64.7632 42.448C65.3327 42.5057 65.9044 42.5649 66.4767 42.624C70.432 43.033 74.4205 43.4454 77.9906 43.4444C82.06 43.4433 85.7081 42.9089 88.1773 41.118C90.6125 39.3614 92.2218 36.0941 93.4616 32.2623C94.532 28.9543 95.3532 25.135 96.17 21.3357C96.3036 20.7147 96.437 20.0942 96.5713 19.4766C97.5322 15.0597 98.5418 10.7887 99.9892 7.403C101.442 4.00583 103.283 1.62304 105.833 0.80091C108.291 0.0154861 111.116 0.882171 114.254 2.79311C117.378 4.69596 120.691 7.55917 124.078 10.5644C124.424 10.8718 124.771 11.1806 125.119 11.49C128.156 14.1913 131.235 16.9305 134.231 19.0631C137.559 21.4314 140.875 23.1202 144 23.1202C147.125 23.1202 150.442 21.4265 153.769 19.0528C156.757 16.9211 159.828 14.1853 162.856 11.487C163.212 11.1696 163.568 10.8527 163.922 10.5374C167.309 7.52779 170.622 4.6626 173.746 2.76326C176.883 0.855788 179.708 -0.00169695 182.164 0.800181L182.166 0.800757C184.717 1.62275 186.558 4.00562 188.011 7.403C189.458 10.7887 190.468 15.0597 191.429 19.4766C191.563 20.0941 191.696 20.7145 191.83 21.3354C192.647 25.1348 193.468 28.9542 194.538 32.2623C195.778 36.0944 197.388 39.3619 199.823 41.1184L199.824 41.1191C202.293 42.8912 205.941 43.4166 210.01 43.4144C213.56 43.4124 217.524 43.0059 221.458 42.6025C222.052 42.5415 222.645 42.4807 223.236 42.4213C227.763 41.9667 232.158 41.5985 235.836 41.9123C239.529 42.2273 242.361 43.2193 243.915 45.3524L243.916 45.3533C245.45 47.4487 245.511 50.402 244.664 53.97C243.821 57.5232 242.111 61.5492 240.283 65.6819C240.071 66.1618 239.857 66.6431 239.643 67.1251C238.021 70.775 236.382 74.4654 235.276 77.89C234.03 81.7514 233.423 85.3871 234.372 88.3073C235.287 91.1262 237.911 93.6328 241.19 95.9702C243.979 97.958 247.32 99.8761 250.654 101.79C251.259 102.137 251.864 102.485 252.465 102.832C256.398 105.105 260.178 107.389 262.976 109.826C265.783 112.271 267.5 114.784 267.5 117.5C267.5 120.216 265.783 122.729 262.976 125.174C260.178 127.611 256.398 129.895 252.465 132.168C251.864 132.515 251.259 132.863 250.654 133.21C247.32 135.124 243.979 137.042 241.19 139.03C237.911 141.367 235.286 143.874 234.372 146.693C233.422 149.596 234.035 153.219 235.287 157.071C236.389 160.463 238.019 164.121 239.634 167.745C239.86 168.252 240.086 168.759 240.31 169.265C242.143 173.398 243.854 177.428 244.694 180.989C245.537 184.565 245.468 187.532 243.916 189.646Z" fill="#0D1140" stroke="#FF0A47"/>
<path d="M263.916 189.646L263.915 189.648C262.362 191.78 259.53 192.768 255.837 193.078C252.159 193.386 247.763 193.011 243.237 192.552C242.667 192.494 242.095 192.435 241.523 192.376C237.568 191.967 233.579 191.555 230.009 191.556C225.94 191.557 222.292 192.091 219.823 193.882C217.388 195.638 215.778 198.906 214.538 202.738C213.468 206.046 212.647 209.865 211.83 213.665C211.696 214.286 211.563 214.906 211.429 215.523C210.468 219.94 209.458 224.211 208.011 227.597C206.559 230.994 204.717 233.377 202.167 234.199C199.71 234.985 196.884 234.118 193.746 232.207C190.622 230.304 187.309 227.441 183.922 224.436C183.576 224.128 183.228 223.819 182.881 223.51C179.844 220.809 176.765 218.069 173.769 215.937C170.441 213.569 167.125 211.88 164 211.88C160.875 211.88 157.558 213.573 154.231 215.947C151.243 218.079 148.172 220.815 145.144 223.513C144.788 223.831 144.432 224.147 144.078 224.463C140.691 227.472 137.378 230.337 134.254 232.237C131.117 234.144 128.292 235.002 125.836 234.2L125.834 234.199C123.283 233.377 121.442 230.994 119.989 227.597C118.542 224.211 117.532 219.94 116.571 215.523C116.437 214.906 116.304 214.285 116.17 213.664C115.353 209.865 114.532 206.046 113.462 202.738C112.222 198.906 110.612 195.638 108.177 193.882L108.176 193.881C105.707 192.109 102.059 191.583 97.9902 191.586C94.44 191.588 90.4759 191.994 86.5421 192.398C85.9481 192.458 85.3548 192.519 84.7637 192.579C80.2373 193.033 75.842 193.401 72.1637 193.088C68.4708 192.773 65.6385 191.781 64.0847 189.648L64.084 189.647C62.5503 187.551 62.4895 184.598 63.3362 181.03C64.1794 177.477 65.8889 173.451 67.7168 169.318C67.9291 168.838 68.1429 168.357 68.357 167.875C69.9787 164.225 71.6184 160.535 72.7238 157.11C73.9701 153.249 74.5773 149.613 73.6284 146.693C72.7134 143.874 70.0885 141.371 66.8093 139.039C64.0297 137.063 60.7008 135.156 57.3775 133.253C56.7618 132.9 56.1463 132.547 55.5345 132.195C51.6019 129.926 47.8216 127.645 45.0244 125.205C42.2185 122.757 40.5 120.235 40.5 117.5C40.5 114.784 42.2174 112.271 45.0242 109.826C47.8216 107.389 51.6022 105.105 55.5349 102.832C56.1361 102.485 56.7408 102.137 57.3458 101.79C60.6799 99.8761 64.0212 97.958 66.8098 95.9702C70.0888 93.6328 72.7133 91.1262 73.6283 88.3074C74.5777 85.4038 73.9651 81.7807 72.7134 77.9291C71.6109 74.5369 69.9809 70.8789 68.3663 67.2556C68.1399 66.7478 67.9139 66.2406 67.6897 65.7349C65.8574 61.6024 64.1459 57.5723 63.3061 54.0107C62.463 50.4352 62.5318 47.4678 64.0836 45.3539L64.0847 45.3524C65.6383 43.2197 68.47 42.2319 72.163 41.9223C75.8414 41.614 80.2366 41.9888 84.7632 42.448C85.3327 42.5057 85.9044 42.5649 86.4767 42.624C90.432 43.033 94.4205 43.4454 97.9906 43.4444C102.06 43.4433 105.708 42.9089 108.177 41.118C110.612 39.3614 112.222 36.0941 113.462 32.2623C114.532 28.9543 115.353 25.135 116.17 21.3357C116.304 20.7147 116.437 20.0942 116.571 19.4766C117.532 15.0597 118.542 10.7887 119.989 7.403C121.442 4.00583 123.283 1.62304 125.833 0.80091C128.291 0.0154861 131.116 0.882171 134.254 2.79311C137.378 4.69596 140.691 7.55917 144.078 10.5644C144.424 10.8718 144.771 11.1806 145.119 11.49C148.156 14.1913 151.235 16.9305 154.231 19.0631C157.559 21.4314 160.875 23.1202 164 23.1202C167.125 23.1202 170.442 21.4265 173.769 19.0528C176.757 16.9211 179.828 14.1853 182.856 11.487C183.212 11.1696 183.568 10.8527 183.922 10.5374C187.309 7.52779 190.622 4.6626 193.746 2.76326C196.883 0.855788 199.708 -0.00169695 202.164 0.800181L202.166 0.800757C204.717 1.62275 206.558 4.00562 208.011 7.403C209.458 10.7887 210.468 15.0597 211.429 19.4766C211.563 20.0941 211.696 20.7145 211.83 21.3354C212.647 25.1348 213.468 28.9542 214.538 32.2623C215.778 36.0944 217.388 39.3619 219.823 41.1184L219.824 41.1191C222.293 42.8912 225.941 43.4166 230.01 43.4144C233.56 43.4124 237.524 43.0059 241.458 42.6025C242.052 42.5415 242.645 42.4807 243.236 42.4213C247.763 41.9667 252.158 41.5985 255.836 41.9123C259.529 42.2273 262.361 43.2193 263.915 45.3524L263.916 45.3533C265.45 47.4487 265.511 50.402 264.664 53.97C263.821 57.5232 262.111 61.5492 260.283 65.6819C260.071 66.1618 259.857 66.6431 259.643 67.1251C258.021 70.775 256.382 74.4654 255.276 77.89C254.03 81.7514 253.423 85.3871 254.372 88.3073C255.287 91.1262 257.911 93.6328 261.19 95.9702C263.979 97.958 267.32 99.8761 270.654 101.79C271.259 102.137 271.864 102.485 272.465 102.832C276.398 105.105 280.178 107.389 282.976 109.826C285.783 112.271 287.5 114.784 287.5 117.5C287.5 120.216 285.783 122.729 282.976 125.174C280.178 127.611 276.398 129.895 272.465 132.168C271.864 132.515 271.259 132.863 270.654 133.21C267.32 135.124 263.979 137.042 261.19 139.03C257.911 141.367 255.286 143.874 254.372 146.693C253.422 149.596 254.035 153.219 255.287 157.071C256.389 160.463 258.019 164.121 259.634 167.745C259.86 168.252 260.086 168.759 260.31 169.265C262.143 173.398 263.854 177.428 264.694 180.989C265.537 184.565 265.468 187.532 263.916 189.646Z" fill="#0D1140" stroke="#FF0A47"/>
</svg>
